<svg width="45" height="45" viewBox="0 0 45 45" fill="none" xmlns="http://www.w3.org/2000/svg">
<path fill-rule="evenodd" clip-rule="evenodd" d="M23.8258 8.04918C23.0936 7.31694 21.9064 7.31694 21.1742 8.04917L9.92418 19.2992C9.57254 19.6508 9.375 20.1277 9.375 20.625V37.8217H15V26.5717C15 25.5362 15.8395 24.6967 16.875 24.6967H28.125C29.1605 24.6967 30 25.5362 30 26.5717V37.8217H35.625V20.625C35.625 20.1277 35.4275 19.6508 35.0758 19.2992L23.8258 8.04918ZM18.5225 5.39752C20.7192 3.20082 24.2808 3.20083 26.4775 5.39753L37.7275 16.6475C38.7824 17.7024 39.375 19.1332 39.375 20.625V39.6967C39.375 40.7322 38.5355 41.5717 37.5 41.5717H28.125C27.0895 41.5717 26.25 40.7322 26.25 39.6967V28.4467H18.75V39.6967C18.75 40.7322 17.9105 41.5717 16.875 41.5717H7.5C6.46447 41.5717 5.625 40.7322 5.625 39.6967V20.625C5.625 19.1332 6.21763 17.7024 7.27252 16.6475L18.5225 5.39752Z" fill="#278AFF"/>
</svg>
