<svg width="47" height="47" viewBox="0 0 47 47" fill="none" xmlns="http://www.w3.org/2000/svg">
<path d="M25.4583 27.4167C25.4583 26.3351 24.5816 25.4583 23.5 25.4583C22.4185 25.4583 21.5417 26.3351 21.5417 27.4167V31.3333C21.5417 32.4149 22.4185 33.2917 23.5 33.2917C24.5816 33.2917 25.4583 32.4149 25.4583 31.3333V27.4167Z" fill="#278AFF"/>
<path fill-rule="evenodd" clip-rule="evenodd" d="M13.7083 11.75C13.7083 6.34222 18.0922 1.95834 23.5 1.95834C28.9078 1.95834 33.2917 6.34222 33.2917 11.75V17.1445C36.8733 20.0156 39.1667 24.4275 39.1667 29.375C39.1667 38.0275 32.1525 45.0417 23.5 45.0417C14.8475 45.0417 7.83334 38.0275 7.83334 29.375C7.83334 24.4275 10.1267 20.0156 13.7083 17.1445V11.75ZM29.375 11.75V14.8471C27.5607 14.1128 25.5776 13.7083 23.5 13.7083C21.4224 13.7083 19.4393 14.1128 17.625 14.8471V11.75C17.625 8.50534 20.2553 5.87501 23.5 5.87501C26.7447 5.87501 29.375 8.50534 29.375 11.75ZM23.5 17.625C17.0107 17.625 11.75 22.8857 11.75 29.375C11.75 35.8644 17.0107 41.125 23.5 41.125C29.9894 41.125 35.25 35.8644 35.25 29.375C35.25 22.8857 29.9894 17.625 23.5 17.625Z" fill="#278AFF"/>
</svg>
