<svg width="51" height="51" viewBox="0 0 51 51" fill="none" xmlns="http://www.w3.org/2000/svg">
<path d="M25.5 25.5C27.8472 25.5 29.75 23.5972 29.75 21.25C29.75 18.9028 27.8472 17 25.5 17C23.1528 17 21.25 18.9028 21.25 21.25C21.25 23.5972 23.1528 25.5 25.5 25.5Z" fill="#278AFF"/>
<path d="M38.25 21.25C38.25 22.4236 37.2986 23.375 36.125 23.375C34.9514 23.375 34 22.4236 34 21.25C34 20.0764 34.9514 19.125 36.125 19.125C37.2986 19.125 38.25 20.0764 38.25 21.25Z" fill="#278AFF"/>
<path d="M14.875 23.375C16.0486 23.375 17 22.4236 17 21.25C17 20.0764 16.0486 19.125 14.875 19.125C13.7014 19.125 12.75 20.0764 12.75 21.25C12.75 22.4236 13.7014 23.375 14.875 23.375Z" fill="#278AFF"/>
<path fill-rule="evenodd" clip-rule="evenodd" d="M4.25 10.625C4.25 7.10418 7.10418 4.25 10.625 4.25H40.375C43.8958 4.25 46.75 7.10419 46.75 10.625V31.875C46.75 35.3958 43.8958 38.25 40.375 38.25H10.625C7.10418 38.25 4.25 35.3958 4.25 31.875V10.625ZM10.625 8.5C9.4514 8.5 8.5 9.4514 8.5 10.625V31.875C8.5 33.0486 9.4514 34 10.625 34H40.375C41.5486 34 42.5 33.0486 42.5 31.875V10.625C42.5 9.4514 41.5486 8.5 40.375 8.5H10.625Z" fill="#278AFF"/>
<path d="M6.375 44.625C6.375 43.4514 7.3264 42.5 8.5 42.5H42.5C43.6736 42.5 44.625 43.4514 44.625 44.625C44.625 45.7986 43.6736 46.75 42.5 46.75H8.5C7.3264 46.75 6.375 45.7986 6.375 44.625Z" fill="#278AFF"/>
</svg>
