<svg width="47" height="47" viewBox="0 0 47 47" fill="none" xmlns="http://www.w3.org/2000/svg">
<path fill-rule="evenodd" clip-rule="evenodd" d="M23.5002 27.4167C26.7449 27.4167 29.3752 24.7864 29.3752 21.5417C29.3752 18.297 26.7449 15.6667 23.5002 15.6667C20.2555 15.6667 17.6252 18.297 17.6252 21.5417C17.6252 24.7864 20.2555 27.4167 23.5002 27.4167ZM23.5002 23.5C24.5818 23.5 25.4585 22.6232 25.4585 21.5417C25.4585 20.4601 24.5818 19.5833 23.5002 19.5833C22.4187 19.5833 21.5419 20.4601 21.5419 21.5417C21.5419 22.6232 22.4187 23.5 23.5002 23.5Z" fill="#278AFF"/>
<path d="M20.9139 33.2917C19.6861 33.2917 17.9691 34.604 17.6098 37.4533C17.4745 38.5264 16.4949 39.2866 15.4219 39.1513C14.3488 39.016 13.5886 38.0364 13.7239 36.9633C14.2196 33.0323 16.941 29.375 20.9139 29.375H26.0865C30.0594 29.375 32.7808 33.0323 33.2765 36.9633C33.4118 38.0364 32.6516 39.016 31.5785 39.1513C30.5055 39.2866 29.5259 38.5264 29.3906 37.4533C29.0313 34.604 27.3143 33.2917 26.0865 33.2917H20.9139Z" fill="#278AFF"/>
<path fill-rule="evenodd" clip-rule="evenodd" d="M17.625 3.91668C17.625 2.83512 18.5018 1.95834 19.5833 1.95834H27.4167C28.4982 1.95834 29.375 2.83512 29.375 3.91668V5.87501H35.25C38.4947 5.87501 41.125 8.50534 41.125 11.75V39.1667C41.125 42.4114 38.4947 45.0417 35.25 45.0417H11.75C8.50533 45.0417 5.875 42.4114 5.875 39.1667V11.75C5.875 8.50534 8.50533 5.87501 11.75 5.87501H17.625V3.91668ZM27.4167 11.75C28.4982 11.75 29.375 10.8732 29.375 9.79168H35.25C36.3316 9.79168 37.2083 10.6685 37.2083 11.75V39.1667C37.2083 40.2482 36.3316 41.125 35.25 41.125H11.75C10.6684 41.125 9.79167 40.2482 9.79167 39.1667V11.75C9.79167 10.6685 10.6684 9.79168 11.75 9.79168H17.625C17.625 10.8732 18.5018 11.75 19.5833 11.75H27.4167ZM21.5417 5.87501V7.83334H25.4583V5.87501H21.5417Z" fill="#278AFF"/>
</svg>
